PathFileType	4	(x/y/z)	S08_BK_Cal_T01
DataRate	CameraRate	NumFrames	NumMarkers	Units	OrigDataRate	OrigDataStartFrame	OrigNumFrames
240	240	5	51	mm	240	1201	2400
Frame#	Time	Sternum			R.Acromium			L.Acromium			Top.Head			R.ASIS			L.ASIS			R.PSIS			L.PSIS			R.Great.Tro			L.Great.Tro			R.Iliac.Crest			L.Iliac.Crest			V.Sacral			R.Thigh.Upper.Post			R.Thigh.Lower.Ant			R.Thigh.Lower.Post			R.Thigh.Upper.Ant			R.Knee.Lat			R.Knee.Med			R.Shank.Upper.Post			R.Shank.Lower.Ant			R.Shank.Lower.Post			R.Shank.Upper.Ant			R.Ankle.Lat			R.Ankle.Med			R.Heel.Upper			R.Heel.Med			R.Heel.Lat			R.Toe.Lat			R.Toe.Med			R.Toe.Tip			L.Thigh.Upper.Post			L.Thigh.Lower.Ant			L.Thigh.Lower.Post			L.Thigh.Upper.Ant			L.Knee.Lat			L.Knee.Med			L.Shank.Upper.Post			L.Shank.Lower.Ant			L.Shank.Lower.Post			L.Shank.Upper.Ant			L.Ankle.Lat			L.Ankle.Med			L.Heel.Upper			L.Heel.Med			L.Heel.Lat			L.Toe.Lat			L.Toe.Med			L.Toe.Tip			Cervical.Spine			Back			
		X1	Y1	Z1	X2	Y2	Z2	X3	Y3	Z3	X4	Y4	Z4	X5	Y5	Z5	X6	Y6	Z6	X7	Y7	Z7	X8	Y8	Z8	X9	Y9	Z9	X10	Y10	Z10	X11	Y11	Z11	X12	Y12	Z12	X13	Y13	Z13	X14	Y14	Z14	X15	Y15	Z15	X16	Y16	Z16	X17	Y17	Z17	X18	Y18	Z18	X19	Y19	Z19	X20	Y20	Z20	X21	Y21	Z21	X22	Y22	Z22	X23	Y23	Z23	X24	Y24	Z24	X25	Y25	Z25	X26	Y26	Z26	X27	Y27	Z27	X28	Y28	Z28	X29	Y29	Z29	X30	Y30	Z30	X31	Y31	Z31	X32	Y32	Z32	X33	Y33	Z33	X34	Y34	Z34	X35	Y35	Z35	X36	Y36	Z36	X37	Y37	Z37	X38	Y38	Z38	X39	Y39	Z39	X40	Y40	Z40	X41	Y41	Z41	X42	Y42	Z42	X43	Y43	Z43	X44	Y44	Z44	X45	Y45	Z45	X46	Y46	Z46	X47	Y47	Z47	X48	Y48	Z48	X49	Y49	Z49	X50	Y50	Z50	X51	Y51	Z51	

1201	5	491.37	1162.1	321.99	401	1419.4	489.33	403.03	1440.9	155.15	407.87	1738	339.59	409.54	946.57	432.92	419.86	945.06	200.35	221.98	1023.6	351.3	232.18	1026.2	257.59	324.24	874.22	506.12	313.6	878.06	123.97	335.18	1039.7	472.87	357.86	1047.8	171.7	200.38	989.47	301.38	374.52	679.94	518.85	485.92	614.91	507.58	415.65	598.13	508.99	450.64	703.46	515.4	487.54	512.91	509.14	473.28	498.26	383.56	395.73	346.31	528.58	442.55	270.37	515.63	378.73	271.22	528.82	460.03	346.71	519.7	340.73	103.96	510.88	373.95	110.77	431.6	291.17	65.251	463.39	305.67	38.965	437.44	294.32	41.198	498.62	NaN	NaN	NaN	491.11	45.504	440.67	553.17	62.492	490.75	371.46	674.21	108.18	486.74	621.73	109.26	421.74	597.73	112.34	440.01	697.93	100.77	475.06	509.78	111.92	491.45	495.6	232.48	388.39	350.46	97.721	435.99	249.07	104.87	370.35	278.35	107.15	448.6	324.19	96.964	350.43	105.4	101.83	379.58	101.74	186.21	294.82	75.08	150.04	311.87	41.694	179.33	300.85	47.839	116.7	474.62	39.864	68.007	501.75	45.668	180.31	561.27	62.698	127.14	339.34	1480.6	312.66	260.4	1211	324.74
1202	5.0042	491.35	1162.1	321.99	400.98	1419.4	489.32	403.04	1440.9	155.15	407.88	1738	339.59	409.51	946.56	432.91	419.83	945.06	200.34	221.96	1023.6	351.28	232.16	1026.2	257.57	324.21	874.22	506.1	313.58	878.06	123.95	335.14	1039.7	472.86	357.83	1047.8	171.69	200.36	989.47	301.37	374.5	679.94	518.84	485.9	614.92	507.58	415.63	598.14	508.98	450.62	703.46	515.39	487.52	512.91	509.13	473.26	498.26	383.55	395.72	346.32	528.58	442.54	270.37	515.62	378.72	271.23	528.82	460.02	346.72	519.7	340.73	103.96	510.88	373.95	110.77	431.6	291.17	65.248	463.39	305.67	38.964	437.44	294.32	41.194	498.62	NaN	NaN	NaN	491.11	45.507	440.67	553.17	62.499	490.75	371.44	674.21	108.16	486.72	621.74	109.25	421.72	597.73	112.33	439.99	697.93	100.76	475.05	509.78	111.91	491.43	495.61	232.47	388.38	350.46	97.715	435.99	249.07	104.86	370.35	278.35	107.14	448.59	324.19	96.958	350.43	105.4	101.83	379.58	101.74	186.21	294.82	75.079	150.04	311.87	41.693	179.33	300.85	47.838	116.7	474.62	39.864	68.006	501.75	45.674	180.31	561.27	62.701	127.14	339.33	1480.6	312.65	260.38	1211	324.72
1203	5.0083	491.33	1162.1	321.99	400.96	1419.4	489.32	403.04	1440.9	155.14	407.89	1738	339.6	409.48	946.56	432.9	419.81	945.06	200.33	221.93	1023.6	351.27	232.13	1026.2	257.55	324.19	874.22	506.09	313.56	878.06	123.94	335.11	1039.7	472.85	357.81	1047.8	171.68	200.34	989.47	301.35	374.48	679.95	518.83	485.88	614.92	507.57	415.61	598.14	508.97	450.6	703.46	515.37	487.51	512.92	509.12	473.24	498.26	383.54	395.71	346.32	528.58	442.53	270.37	515.62	378.72	271.24	528.82	460.01	346.72	519.69	340.73	103.96	510.88	373.94	110.77	431.59	291.16	65.244	463.4	305.67	38.963	437.44	294.32	41.19	498.62	NaN	NaN	NaN	491.11	45.51	440.67	553.16	62.506	490.75	371.43	674.21	108.15	486.71	621.74	109.23	421.71	597.73	112.32	439.97	697.93	100.75	475.03	509.78	111.9	491.41	495.61	232.46	388.37	350.46	97.708	435.98	249.07	104.86	370.34	278.34	107.14	448.58	324.19	96.954	350.43	105.39	101.83	379.58	101.74	186.21	294.82	75.078	150.04	311.87	41.693	179.33	300.85	47.836	116.7	474.62	39.864	68.006	501.76	45.682	180.31	561.27	62.703	127.14	339.33	1480.6	312.64	260.36	1211	324.71
1204	5.0125	491.31	1162.1	321.99	400.94	1419.3	489.31	403.04	1440.9	155.14	407.89	1738	339.6	409.45	946.56	432.88	419.78	945.06	200.31	221.9	1023.6	351.25	232.11	1026.2	257.53	324.16	874.22	506.08	313.54	878.06	123.92	335.08	1039.7	472.84	357.79	1047.8	171.67	200.32	989.46	301.34	374.46	679.95	518.82	485.86	614.93	507.57	415.6	598.15	508.96	450.58	703.47	515.35	487.5	512.92	509.11	473.22	498.26	383.53	395.7	346.32	528.57	442.53	270.38	515.61	378.71	271.25	528.82	460	346.72	519.68	340.73	103.96	510.88	373.94	110.77	431.59	291.16	65.241	463.4	305.67	38.962	437.44	294.32	41.187	498.62	NaN	NaN	NaN	491.1	45.513	440.67	553.16	62.513	490.75	371.41	674.21	108.13	486.7	621.75	109.23	421.7	597.74	112.3	439.96	697.94	100.73	475.02	509.78	111.9	491.39	495.62	232.46	388.36	350.46	97.702	435.98	249.07	104.86	370.34	278.34	107.13	448.58	324.19	96.95	350.43	105.39	101.83	379.58	101.73	186.21	294.82	75.076	150.03	311.87	41.693	179.33	300.85	47.835	116.69	474.62	39.864	68.006	501.76	45.691	180.31	561.26	62.706	127.14	339.32	1480.6	312.63	260.34	1211	324.69
1205	5.0167	491.3	1162.1	321.99	400.92	1419.3	489.31	403.05	1440.9	155.13	407.9	1738	339.61	409.43	946.55	432.87	419.76	945.06	200.3	221.88	1023.6	351.23	232.09	1026.2	257.51	324.14	874.22	506.06	313.53	878.06	123.91	335.04	1039.7	472.83	357.77	1047.8	171.66	200.3	989.46	301.32	374.44	679.96	518.81	485.85	614.93	507.56	415.58	598.16	508.95	450.55	703.47	515.33	487.49	512.93	509.1	473.2	498.27	383.52	395.69	346.32	528.57	442.52	270.38	515.6	378.71	271.26	528.82	459.99	346.72	519.67	340.72	103.96	510.88	373.94	110.77	431.59	291.16	65.238	463.4	305.67	38.962	437.44	294.32	41.183	498.62	NaN	NaN	NaN	491.1	45.516	440.67	553.16	62.519	490.74	371.4	674.21	108.12	486.68	621.75	109.22	421.68	597.74	112.29	439.94	697.94	100.72	475.01	509.79	111.89	491.37	495.62	232.45	388.35	350.46	97.696	435.97	249.07	104.86	370.33	278.34	107.13	448.57	324.19	96.946	350.43	105.38	101.83	379.57	101.73	186.2	294.82	75.074	150.03	311.87	41.694	179.33	300.85	47.833	116.69	474.62	39.864	68.006	501.77	45.701	180.3	561.26	62.708	127.14	339.31	1480.6	312.63	260.33	1211	324.68
